<svg xmlns="http://www.w3.org/2000/svg">
    <symbol id="car" width="60" height="44" viewBox="0 0 60 44" fill="none">
        <path d="M46.3636 39.4022C48.6273 39.4022 50.4545 37.5815 50.4545 35.3261C50.4545 33.0707 48.6273 31.25 46.3636 31.25C44.1 31.25 42.2727 33.0707 42.2727 35.3261C42.2727 37.5815 44.1 39.4022 46.3636 39.4022ZM50.4545 14.9457H43.6364V21.7391H55.8L50.4545 14.9457ZM13.6364 39.4022C15.9 39.4022 17.7273 37.5815 17.7273 35.3261C17.7273 33.0707 15.9 31.25 13.6364 31.25C11.3727 31.25 9.54545 33.0707 9.54545 35.3261C9.54545 37.5815 11.3727 39.4022 13.6364 39.4022ZM51.8182 10.8696L60 21.7391V35.3261H54.5455C54.5455 39.837 50.8909 43.4783 46.3636 43.4783C41.8364 43.4783 38.1818 39.837 38.1818 35.3261H21.8182C21.8182 39.837 18.1636 43.4783 13.6364 43.4783C9.10909 43.4783 5.45455 39.837 5.45455 35.3261H0V5.43478C0 2.41848 2.42727 0 5.45455 0H43.6364V10.8696H51.8182ZM5.45455 5.43478V29.8913H7.52727C9.02727 28.2337 11.2091 27.1739 13.6364 27.1739C16.0636 27.1739 18.2455 28.2337 19.7455 29.8913H38.1818V5.43478H5.45455ZM10.9091 17.663L15 13.587L19.0909 17.663L28.6364 8.15217L32.7273 12.2283L19.0909 25.8152L10.9091 17.663Z" fill="url(#paint0_linear)"/>
        <defs>
        <linearGradient id="paint0_linear" x1="29.771" y1="67.1078" x2="8.32221" y2="9.74277" gradientUnits="userSpaceOnUse">
        <stop stop-color="#0043A7"/>
        <stop offset="1" stop-color="#6377E3"/>
        </linearGradient>
        </defs>
    </symbol>
    <symbol id="cloud" width="60" height="61" viewBox="0 0 60 61" fill="none">
        <path d="M32.9956 54.0026C33.7913 54.0026 34.5544 54.3187 35.1171 54.8813C35.6797 55.444 35.9958 56.2071 35.9958 57.0027C35.9958 57.7984 35.6797 58.5615 35.1171 59.1242C34.5544 59.6868 33.7913 60.0029 32.9956 60.0029C32.2 60.0029 31.4369 59.6868 30.8742 59.1242C30.3116 58.5615 29.9955 57.7984 29.9955 57.0027C29.9955 56.2071 30.3116 55.444 30.8742 54.8813C31.4369 54.3187 32.2 54.0026 32.9956 54.0026ZM22.4952 51.0025C23.2909 51.0025 24.054 51.3186 24.6166 51.8812C25.1792 52.4438 25.4953 53.2069 25.4953 54.0026C25.4953 54.7983 25.1792 55.5614 24.6166 56.124C24.054 56.6867 23.2909 57.0027 22.4952 57.0027C21.6995 57.0027 20.9364 56.6867 20.3738 56.124C19.8112 55.5614 19.4951 54.7983 19.4951 54.0026C19.4951 53.2069 19.8112 52.4438 20.3738 51.8812C20.9364 51.3186 21.6995 51.0025 22.4952 51.0025ZM43.4961 51.0025C44.2918 51.0025 45.0549 51.3186 45.6175 51.8812C46.1801 52.4438 46.4962 53.2069 46.4962 54.0026C46.4962 54.7983 46.1801 55.5614 45.6175 56.124C45.0549 56.6867 44.2918 57.0027 43.4961 57.0027C42.7004 57.0027 41.9373 56.6867 41.3747 56.124C40.812 55.5614 40.496 54.7983 40.496 54.0026C40.496 53.2069 40.812 52.4438 41.3747 51.8812C41.9373 51.3186 42.7004 51.0025 43.4961 51.0025ZM33.0016 12.0278C42.5061 12.0278 47.9003 18.3191 48.6833 25.9184H48.9233C50.3762 25.9164 51.8152 26.2007 53.1582 26.755C54.5012 27.3092 55.7218 28.1226 56.7504 29.1487C57.779 30.1748 58.5954 31.3934 59.1529 32.7351C59.7104 34.0767 59.9982 35.515 59.9998 36.9679C59.9978 38.4205 59.7098 39.8585 59.1521 41.1998C58.5943 42.5411 57.7779 43.7594 56.7494 44.7851C55.7208 45.8109 54.5003 46.624 53.1575 47.1781C51.8147 47.7322 50.3759 48.0163 48.9233 48.0144H17.077C15.6244 48.0163 14.1856 47.7322 12.8428 47.1781C11.5 46.624 10.2795 45.8109 9.25093 44.7851C8.22239 43.7594 7.40595 42.5411 6.84824 41.1998C6.29053 39.8585 6.00247 38.4205 6.0005 36.9679C6.00207 35.515 6.28985 34.0767 6.84738 32.7351C7.40491 31.3934 8.22129 30.1748 9.24987 29.1487C10.2785 28.1226 11.4991 27.3092 12.8421 26.755C14.1851 26.2007 15.6241 25.9164 17.077 25.9184H17.317C18.106 18.2681 23.4972 12.0278 33.0016 12.0278ZM7.09555 24.4934C7.30417 24.9958 7.3237 25.5568 7.1505 26.0725C6.9773 26.5883 6.62311 27.0238 6.15351 27.2985L5.87749 27.4335L3.09938 28.5855C2.57329 28.8 1.98556 28.8074 1.45418 28.6065C0.922796 28.4055 0.487098 28.011 0.234552 27.5021C-0.0179947 26.9932 -0.0686951 26.4076 0.0926283 25.8629C0.253952 25.3182 0.615357 24.8547 1.10429 24.5654L1.3773 24.4274L4.15542 23.2753C4.42845 23.1622 4.72108 23.104 5.01661 23.104C5.31213 23.104 5.60476 23.1622 5.87779 23.2753C6.15081 23.3884 6.39888 23.5542 6.60782 23.7632C6.81677 23.9722 6.9825 24.2203 7.09555 24.4934ZM26.5574 9.99373L26.0443 10.1677C20.6891 12.0578 16.855 16.183 15.1989 21.6372L14.9859 22.3873L14.8119 23.1013L14.1938 23.2183C12.3989 23.5952 10.6962 24.3231 9.18364 25.3604C7.80858 22.997 7.29496 20.2301 7.73017 17.5306C8.16538 14.8312 9.52253 12.3659 11.5707 10.5544C13.6188 8.74285 16.2314 7.69699 18.9638 7.59477C21.6962 7.49255 24.3796 8.34029 26.5574 9.99373ZM2.81736 10.0867L3.13238 10.1917L5.9105 11.3438C6.43151 11.5634 6.85074 11.9712 7.08477 12.4859C7.31879 13.0006 7.35047 13.5845 7.17349 14.1215C6.9965 14.6585 6.62384 15.1092 6.12964 15.3839C5.63544 15.6586 5.05594 15.7372 4.50644 15.604L4.18842 15.502L1.4103 14.3499C0.887909 14.1309 0.467324 13.723 0.232518 13.2075C-0.00228851 12.692 -0.0340383 12.107 0.143607 11.5691C0.321252 11.0312 0.695221 10.5802 1.19085 10.3059C1.68648 10.0317 2.26731 9.95451 2.81736 10.0897V10.0867ZM14.2629 1.12836L14.3979 1.40137L15.5499 4.17949C15.7674 4.70604 15.7771 5.29551 15.577 5.82894C15.3769 6.36236 14.9819 6.80002 14.4718 7.05359C13.9616 7.30716 13.3742 7.35776 12.8282 7.19517C12.2821 7.03258 11.8181 6.66892 11.5297 6.17757L11.3917 5.90156L10.2397 3.12344C10.0253 2.59735 10.0178 2.00962 10.2187 1.47824C10.4197 0.946861 10.8142 0.511163 11.3231 0.258617C11.832 0.00607021 12.4176 -0.0446302 12.9623 0.116693C13.507 0.278017 13.9706 0.639422 14.2599 1.12836H14.2629ZM27.3224 0.171315C27.8205 0.378057 28.2278 0.756829 28.4701 1.23865C28.7124 1.72047 28.7735 2.27329 28.6425 2.79643L28.5405 3.11144L27.3884 5.88956C27.1688 6.41057 26.761 6.8298 26.2463 7.06383C25.7316 7.29786 25.1477 7.32953 24.6107 7.15255C24.0737 6.97557 23.623 6.6029 23.3483 6.1087C23.0736 5.6145 22.995 5.035 23.1282 4.4855L23.2332 4.16749L24.3823 1.38937C24.4953 1.11632 24.6611 0.868212 24.87 0.659219C25.0789 0.450227 25.327 0.284441 25.6 0.171331C25.8731 0.0582212 26.1657 2.70106e-06 26.4612 0C26.7567 -2.70087e-06 27.0494 0.0582104 27.3224 0.171315Z" fill="url(#paint0_linear)"/>
        <defs>
        <linearGradient id="paint0_linear" x1="29.7709" y1="92.6131" x2="-7.00036" y2="21.3522" gradientUnits="userSpaceOnUse">
        <stop stop-color="#0043A7"/>
        <stop offset="1" stop-color="#6377E3"/>
        </linearGradient>
        </defs>
    </symbol>
    <symbol id="diamond" width="54" height="54" viewBox="0 0 54 54" fill="none">
        <path d="M37.8 18.9H45.9L32.4 37.8L37.8 18.9ZM21.6 18.9H32.4L27 40.5L21.6 18.9ZM8.1 18.9H16.2L21.6 37.8L8.1 18.9ZM35.1 5.4H40.5L45.9 13.5H37.8L35.1 5.4ZM24.3 5.4H29.7L32.4 13.5H21.6L24.3 5.4ZM13.5 5.4H18.9L16.2 13.5H8.1L13.5 5.4ZM10.8 0L0 16.2L27 54L54 16.2L43.2 0H10.8Z" fill="url(#paint0_linear)"/>
        <defs>
        <linearGradient id="paint0_linear" x1="26.7939" y1="83.3478" x2="-6.29767" y2="19.2147" gradientUnits="userSpaceOnUse">
        <stop stop-color="#0043A7"/>
        <stop offset="1" stop-color="#6377E3"/>
        </linearGradient>
        </defs>
    </symbol>
    <symbol id="house" width="72" height="43" viewBox="0 0 72 43" fill="none">
        <path d="M59.0896 7.48886C58.9894 7.33848 58.8535 7.21518 58.6941 7.1299C58.5348 7.04462 58.3568 7 58.1761 7C57.9953 7 57.8174 7.04462 57.658 7.1299C57.4987 7.21518 57.3628 7.33848 57.2625 7.48886L50.6745 17.371C50.5644 17.5363 50.5013 17.7284 50.4918 17.9268C50.4823 18.1252 50.5268 18.3224 50.6206 18.4975C50.7143 18.6726 50.8538 18.819 51.0242 18.9211C51.1945 19.0232 51.3894 19.0772 51.588 19.0773H51.8032L47.3629 26.1814C47.259 26.3476 47.2015 26.5386 47.1964 26.7345C47.1912 26.9304 47.2386 27.1242 47.3336 27.2956C47.4286 27.467 47.5678 27.6099 47.7367 27.7094C47.9056 27.8089 48.098 27.8613 48.294 27.8613H48.7134L45.1164 35.0555C45.0325 35.2229 44.9928 35.409 45.0011 35.596C45.0094 35.7831 45.0654 35.9649 45.1637 36.1242C45.2621 36.2836 45.3996 36.4151 45.5631 36.5063C45.7266 36.5975 45.9107 36.6454 46.098 36.6454H55.9801V42.1355H60.3721V36.6454H70.2542C70.4414 36.6454 70.6256 36.5975 70.7891 36.5063C70.9526 36.4151 71.0901 36.2836 71.1884 36.1242C71.2868 35.9649 71.3428 35.7831 71.3511 35.596C71.3594 35.409 71.3197 35.2229 71.2358 35.0555L67.6409 27.8613H68.0604C68.2564 27.8613 68.4488 27.8089 68.6177 27.7094C68.7866 27.6099 68.9257 27.467 69.0207 27.2956C69.1158 27.1242 69.1632 26.9304 69.158 26.7345C69.1529 26.5386 69.0954 26.3476 68.9915 26.1814L64.5489 19.0773H64.7641C64.9628 19.0772 65.1576 19.0232 65.328 18.9211C65.4984 18.819 65.6378 18.6726 65.7316 18.4975C65.8253 18.3224 65.8698 18.1252 65.8603 17.9268C65.8508 17.7284 65.7877 17.5363 65.6777 17.371L59.0896 7.48886Z" fill="url(#paint0_linear)"/>
        <path d="M40 18.9022V38.5926C39.9996 39.2101 39.8359 39.816 39.5262 40.3462C39.2166 40.8764 38.7724 41.3111 38.2408 41.6045C37.7592 41.871 37.2189 42.007 36.6713 41.9997H26.6594C26.2174 41.9997 25.7935 41.8202 25.4809 41.5007C25.1684 41.1812 24.9928 40.7479 24.9928 40.296V30.0724C24.9928 29.6206 24.8172 29.1872 24.5046 28.8677C24.1921 28.5482 23.7682 28.3687 23.3261 28.3687H16.6595C16.2175 28.3687 15.7936 28.5482 15.481 28.8677C15.1684 29.1872 14.9928 29.6206 14.9928 30.0724V40.296C14.9928 40.7479 14.8173 41.1812 14.5047 41.5007C14.1921 41.8202 13.7682 41.9997 13.3262 41.9997H3.33395C2.8614 42.001 2.39404 41.8989 1.9632 41.7005C1.53236 41.5021 1.14799 41.2118 0.835844 40.8491C0.28789 40.2013 -0.0093243 39.371 0.000223069 38.5146V18.902C0.000586258 18.4272 0.0978021 17.9578 0.285662 17.5237C0.473521 17.0895 0.747895 16.7002 1.09126 16.3805L17.7564 0.891223C18.3685 0.318046 19.1685 7.88543e-05 19.9987 1.46646e-08C20.8288 -7.88249e-05 21.6289 0.317737 22.2411 0.890798L38.9092 16.3807C39.2524 16.7004 39.5267 17.0898 39.7146 17.5239C39.9024 17.9581 39.9996 18.4275 40 18.9022Z" fill="url(#paint1_linear)"/>
        <defs>
        <linearGradient id="paint0_linear" x1="58.0755" y1="61.2308" x2="33.4023" y2="25.3667" gradientUnits="userSpaceOnUse">
        <stop stop-color="#0043A7"/>
        <stop offset="1" stop-color="#6377E3"/>
        </linearGradient>
        <linearGradient id="paint1_linear" x1="19.8473" y1="64.8261" x2="-6.60731" y2="15.9971" gradientUnits="userSpaceOnUse">
        <stop stop-color="#0043A7"/>
        <stop offset="1" stop-color="#6377E3"/>
        </linearGradient>
    </symbol>
    <symbol id="lamp" width="53" height="55" viewBox="0 0 53 55" fill="none">
        <path d="M18.6792 8.59392C13.0606 8.59392 8.49057 13.2196 8.49057 18.9066C8.49057 19.8562 9.25047 20.6254 10.1887 20.6254C11.1269 20.6254 11.8868 19.8562 11.8868 18.9066C11.8868 15.1146 14.9349 12.0315 18.6792 12.0315C19.6175 12.0315 20.3774 11.2623 20.3774 10.3127C20.3774 9.36307 19.6175 8.59392 18.6792 8.59392ZM10.195 49.3259C10.195 49.6643 10.2937 49.994 10.4795 50.2755L13.0808 54.233C13.396 54.7121 13.9267 55 14.4945 55H22.863C23.4318 55 23.9625 54.7121 24.2767 54.233L26.8779 50.2755C27.0626 49.994 27.1613 49.6632 27.1624 49.3259L27.1677 44.6873H10.1908L10.195 49.3259ZM18.6792 0C7.82406 0 0 8.91297 0 18.9066C0 23.673 1.74587 28.0215 4.62311 31.3442C6.38915 33.3841 9.1592 37.6607 10.1866 41.2444V41.2508H15.2809V41.2379C15.2798 40.7255 15.2045 40.2163 15.0527 39.7265C14.4594 37.8132 12.6308 32.7686 8.45448 27.9453C6.27453 25.4283 5.1092 22.2357 5.09965 18.9066C5.07842 10.9959 11.4325 5.15635 18.6792 5.15635C26.17 5.15635 32.2642 11.3246 32.2642 18.9066C32.2642 22.2335 31.0712 25.4434 28.9051 27.9453C24.7542 32.7375 22.9171 37.7713 22.3143 39.7039C22.1587 40.2008 22.0792 40.7188 22.0787 41.2401V41.2508H27.173V41.2454C28.2004 37.6607 30.9704 33.3842 32.7364 31.3452C35.6126 28.0215 37.3585 23.673 37.3585 18.9066C37.3585 8.46501 28.9953 0 18.6792 0Z" fill="url(#paint0_linear)"/>
        <path d="M51.7957 28.3734C51.5839 27.9174 50.9785 27.8992 50.7249 28.3296C49.552 30.2958 47.452 31.5214 45.0531 31.5214H42.026C38.0153 31.5214 34.7612 34.6585 34.7612 38.5252C34.7612 38.7806 34.7915 39.025 34.818 39.273C37.232 37.606 40.7169 36.1906 45.6585 36.1906C45.9914 36.1906 46.2639 36.4533 46.2639 36.7743C46.2639 37.0953 45.9914 37.3579 45.6585 37.3579C36.1461 37.3579 32.1126 42.9792 31.2196 45.0912C30.9699 45.6858 31.265 46.3643 31.8818 46.6087C32.5023 46.8568 33.2061 46.5686 33.4634 45.9777C33.5201 45.8463 34.2542 44.2304 36.1839 42.6728C37.4098 44.2741 39.7407 45.8026 42.8017 45.4889C48.7422 45.073 52.9233 39.9369 52.9233 33.6481C52.9233 31.8169 52.5147 29.92 51.7957 28.3734Z" fill="url(#paint1_linear)"/>
        <defs>
        <linearGradient id="paint0_linear" x1="18.5367" y1="84.8913" x2="-21.3042" y2="32.4444" gradientUnits="userSpaceOnUse">
        <stop stop-color="#0043A7"/>
        <stop offset="1" stop-color="#6377E3"/>
        </linearGradient>
        <linearGradient id="paint1_linear" x1="41.9439" y1="56.8497" x2="31.5527" y2="33.3547" gradientUnits="userSpaceOnUse">
        <stop stop-color="#0043A7"/>
        <stop offset="1" stop-color="#6377E3"/>
        </linearGradient>
        </defs>
    </symbol>
    <symbol id="shield" width="52" height="56" viewBox="0 0 52 56" fill="none">
        <path d="M48.8042 9.15285L28.0042 0.401999C27.3706 0.136607 26.6914 0 26.0054 0C25.3195 0 24.6403 0.136607 24.0067 0.401999L3.20667 9.15285C1.2675 9.96231 0 11.8766 0 13.9986C0 35.7117 12.4042 50.7194 23.9958 55.598C25.2742 56.134 26.715 56.134 27.9933 55.598C37.2775 51.6929 52 38.2057 52 13.9986C52 11.8766 50.7325 9.96231 48.8042 9.15285ZM26.0108 48.8161L26 7.14016L45.0558 15.1581C44.6983 31.7191 36.1617 43.7187 26.0108 48.8161Z" fill="url(#paint0_linear)"/>
        <defs>
        <linearGradient id="paint0_linear" x1="25.8015" y1="86.4348" x2="-9.95433" y2="22.0879" gradientUnits="userSpaceOnUse">
        <stop stop-color="#0043A7"/>
        <stop offset="1" stop-color="#6377E3"/>
        </linearGradient>
        </defs>
    </symbol>
    <symbol id="square" width="49" height="39" viewBox="0 0 49 39" fill="none">
        <path d="M17.9443 1C17.9443 0.723858 17.7204 0.5 17.4443 0.5H1C0.723858 0.5 0.5 0.723858 0.5 1V10.8665C0.5 11.1426 0.723858 11.3665 1 11.3665H4.28883C4.56498 11.3665 4.78883 11.1426 4.78883 10.8665V4.78883H17.4443C17.7204 4.78883 17.9443 4.56498 17.9443 4.28883V1Z" fill="url(#paint0_linear)" stroke="url(#paint1_linear)" stroke-linejoin="round"/>
        <path d="M30.5999 0.5C30.3238 0.5 30.0999 0.723858 30.0999 1V4.28883C30.0999 4.56498 30.3238 4.78883 30.5999 4.78883H43.2553V10.8665C43.2553 11.1426 43.4792 11.3665 43.7553 11.3665H47.0442C47.3203 11.3665 47.5442 11.1426 47.5442 10.8665V1C47.5442 0.723858 47.3203 0.5 47.0442 0.5H30.5999Z" fill="url(#paint2_linear)" stroke="url(#paint3_linear)" stroke-linejoin="round"/>
        <path d="M17.4443 38.4998C17.7204 38.4998 17.9443 38.2759 17.9443 37.9998V34.711C17.9443 34.4348 17.7204 34.211 17.4443 34.211H4.78883V28.1333C4.78883 27.8572 4.56498 27.6333 4.28883 27.6333H1C0.723858 27.6333 0.5 27.8572 0.5 28.1333V37.9998C0.5 38.2759 0.723858 38.4998 1 38.4998H17.4443Z" fill="url(#paint4_linear)" stroke="url(#paint5_linear)" stroke-linejoin="round"/>
        <path d="M30.0999 37.9998C30.0999 38.2759 30.3238 38.4998 30.5999 38.4998H47.0442C47.3203 38.4998 47.5442 38.2759 47.5442 37.9998V28.1333C47.5442 27.8572 47.3203 27.6333 47.0442 27.6333H43.7553C43.4792 27.6333 43.2553 27.8572 43.2553 28.1333V34.211H30.5999C30.3238 34.211 30.0999 34.4348 30.0999 34.711V37.9998Z" fill="url(#paint6_linear)" stroke="url(#paint7_linear)" stroke-linejoin="round"/>
        <defs>
        <linearGradient id="paint0_linear" x1="9.15937" y1="16.2287" x2="4.96756" y2="2.68875" gradientUnits="userSpaceOnUse">
        <stop stop-color="#0043A7"/>
        <stop offset="1" stop-color="#6377E3"/>
        </linearGradient>
        <linearGradient id="paint1_linear" x1="9.15937" y1="16.2287" x2="4.96756" y2="2.68875" gradientUnits="userSpaceOnUse">
        <stop stop-color="#0043A7"/>
        <stop offset="1" stop-color="#6377E3"/>
        </linearGradient>
        <linearGradient id="paint2_linear" x1="38.7593" y1="16.2287" x2="34.5675" y2="2.68875" gradientUnits="userSpaceOnUse">
        <stop stop-color="#0043A7"/>
        <stop offset="1" stop-color="#6377E3"/>
        </linearGradient>
        <linearGradient id="paint3_linear" x1="38.7593" y1="16.2287" x2="34.5675" y2="2.68875" gradientUnits="userSpaceOnUse">
        <stop stop-color="#0043A7"/>
        <stop offset="1" stop-color="#6377E3"/>
        </linearGradient>
        <linearGradient id="paint4_linear" x1="9.15937" y1="43.362" x2="4.96756" y2="29.822" gradientUnits="userSpaceOnUse">
        <stop stop-color="#0043A7"/>
        <stop offset="1" stop-color="#6377E3"/>
        </linearGradient>
        <linearGradient id="paint5_linear" x1="9.15937" y1="43.362" x2="4.96756" y2="29.822" gradientUnits="userSpaceOnUse">
        <stop stop-color="#0043A7"/>
        <stop offset="1" stop-color="#6377E3"/>
        </linearGradient>
        <linearGradient id="paint6_linear" x1="38.7593" y1="43.362" x2="34.5675" y2="29.822" gradientUnits="userSpaceOnUse">
        <stop stop-color="#0043A7"/>
        <stop offset="1" stop-color="#6377E3"/>
        </linearGradient>
        <linearGradient id="paint7_linear" x1="38.7593" y1="43.362" x2="34.5675" y2="29.822" gradientUnits="userSpaceOnUse">
        <stop stop-color="#0043A7"/>
        <stop offset="1" stop-color="#6377E3"/>
        </linearGradient>
        </defs>
    </symbol>
    <symbol id="snow" width="50" height="56" viewBox="0 0 50 56" fill="none">
        <path d="M48.3362 38.85L44.0309 36.3344L47.7761 35.3172C48.6987 35.0656 49.2478 34.1031 48.9952 33.1734L48.5449 31.4781C48.3033 30.5484 47.3478 29.9906 46.4252 30.2422L37.6716 32.6156L29.7858 28L37.6826 23.3844L46.4362 25.7578C47.3587 26.0094 48.3033 25.4516 48.5559 24.5219L49.0062 22.8266C49.2478 21.8969 48.7097 20.9344 47.7871 20.6828L44.0418 19.6656L48.3472 17.15C49.171 16.6688 49.4565 15.5969 48.9842 14.7547L48.1166 13.2344C47.6443 12.3922 46.5789 12.1078 45.7552 12.5891L41.4498 15.1047L42.4493 11.3094C42.6909 10.3797 42.1528 9.41719 41.2302 9.16563L39.5607 8.71719C38.6382 8.46562 37.6936 9.02344 37.441 9.95312L35.1016 18.8125L27.2048 23.4281V14.1859L33.6079 7.7C34.2779 7.02188 34.2779 5.90625 33.6079 5.22813L32.3888 3.99219C31.7188 3.31406 30.6205 3.31406 29.9505 3.99219L27.2157 6.77031V1.75C27.2157 0.7875 26.4469 0 25.4914 0H23.767C22.8115 0 22.0427 0.7875 22.0427 1.75V6.79219L19.3079 4.01406C18.6379 3.33594 17.5396 3.33594 16.8697 4.01406L15.6066 5.25C14.9366 5.92812 14.9366 7.04375 15.6066 7.72187L22.0097 14.2078V23.45L14.1129 18.8344L11.7735 9.975C11.5319 9.04531 10.5763 8.4875 9.65376 8.73906L7.98433 9.1875C7.06175 9.43906 6.5126 10.4016 6.76521 11.3313L7.76467 15.1266L3.4593 12.6109C2.63556 12.1297 1.58119 12.4141 1.09793 13.2562L0.230264 14.7766C-0.242009 15.6188 0.0325686 16.6797 0.867284 17.1719L5.17266 19.6875L1.42742 20.6828C0.504842 20.9344 -0.0443131 21.8969 0.208298 22.8266L0.658605 24.5219C0.900233 25.4516 1.85576 26.0094 2.77834 25.7578L11.5319 23.3844L19.4287 28L11.5319 32.6156L2.77834 30.2422C1.85576 29.9906 0.911216 30.5484 0.658605 31.4781L0.208298 33.1734C-0.03333 34.1031 0.504842 35.0656 1.42742 35.3172L5.17266 36.3344L0.867284 38.85C0.0435517 39.3313 -0.242009 40.4031 0.230264 41.2453L1.09793 42.7656C1.5702 43.6078 2.63556 43.8922 3.4593 43.4109L7.76467 40.8953L6.76521 44.6906C6.52358 45.6203 7.06175 46.5828 7.98433 46.8344L9.65376 47.2828C10.5763 47.5344 11.5209 46.9766 11.7735 46.0469L14.1129 37.1875L22.0097 32.5719V41.8141L15.6066 48.3C14.9366 48.9781 14.9366 50.0938 15.6066 50.7719L16.8257 52.0078C17.4957 52.6859 18.594 52.6859 19.264 52.0078L21.9988 49.2297V54.25C21.9988 55.2125 22.7676 56 23.7231 56H25.4475C26.403 56 27.1718 55.2125 27.1718 54.25V49.2078L29.9066 51.9859C30.5766 52.6641 31.6749 52.6641 32.3448 51.9859L33.564 50.75C34.2339 50.0719 34.2339 48.9562 33.564 48.2781L27.1608 41.7922V32.55L35.0577 37.1656L37.3971 46.025C37.6387 46.9547 38.5942 47.5125 39.5168 47.2609L41.1862 46.8125C42.1088 46.5609 42.658 45.5984 42.4054 44.6688L41.4059 40.8734L45.7113 43.3891C46.535 43.8703 47.5894 43.5859 48.0726 42.7437L48.9403 41.2234C49.4455 40.4031 49.171 39.3313 48.3362 38.85Z" fill="url(#paint0_linear)"/>
        <defs>
        <linearGradient id="paint0_linear" x1="24.4182" y1="86.4348" x2="-12.3525" y2="23.8093" gradientUnits="userSpaceOnUse">
        <stop stop-color="#0043A7"/>
        <stop offset="1" stop-color="#6377E3"/>
        </linearGradient>
        </defs>
    </symbol>
    <symbol id="speaker" width="56" height="43" viewBox="0 0 56 43" fill="none">
        <path d="M23.5187 0.788996L13.7877 10.7496H2.62497C1.17468 10.7496 0 11.9523 0 13.4372V29.5623C0 31.0461 1.17468 32.2498 2.62497 32.2498H13.7877L23.5187 42.2105C25.1626 43.8935 27.9997 42.711 27.9997 40.3102V2.6893C27.9997 0.286204 25.1604 -0.891828 23.5187 0.788996ZM50.4914 21.4997L55.4832 16.389C56.1723 15.6835 56.1723 14.539 55.4832 13.8336L52.9873 11.2782C52.2982 10.5727 51.1804 10.5727 50.4914 11.2782L45.4996 16.389L40.5077 11.2782C39.8187 10.5727 38.7009 10.5727 38.0118 11.2782L35.5159 13.8336C34.8269 14.539 34.8269 15.6835 35.5159 16.389L40.5077 21.4997L35.517 26.6094C34.8279 27.3149 34.8279 28.4593 35.517 29.1648L38.0129 31.7202C38.702 32.4257 39.8198 32.4257 40.5088 31.7202L45.4996 26.6105L50.4914 31.7213C51.1804 32.4268 52.2982 32.4268 52.9873 31.7213L55.4832 29.1659C56.1723 28.4604 56.1723 27.316 55.4832 26.6105L50.4914 21.4997Z" fill="url(#paint0_linear)"/>
        <defs>
        <linearGradient id="paint0_linear" x1="27.7863" y1="66.3696" x2="5.64187" y2="10.4777" gradientUnits="userSpaceOnUse">
        <stop stop-color="#0043A7"/>
        <stop offset="1" stop-color="#6377E3"/>
        </linearGradient>
        </defs>
    </symbol>
    <symbol id="sun" width="56" height="57" viewBox="0 0 56 57" fill="none">
        <path d="M28.0014 17.5008C22.2151 17.5008 17.5008 22.2151 17.5008 28.0014C17.5008 33.7876 22.2151 38.5019 28.0014 38.5019C33.7876 38.5019 38.5019 33.7876 38.5019 28.0014C38.5019 22.2151 33.7876 17.5008 28.0014 17.5008ZM54.9527 26.306L44.5944 21.1323L48.2586 10.1505C48.7508 8.66292 47.3398 7.25191 45.8632 7.75506L34.8814 11.4193L29.6968 1.05005C28.9967 -0.350017 27.006 -0.350017 26.306 1.05005L21.1323 11.4084L10.1396 7.74413C8.65198 7.25191 7.24098 8.66292 7.74413 10.1396L11.4084 21.1213L1.05005 26.306C-0.350017 27.006 -0.350017 28.9967 1.05005 29.6968L11.4084 34.8704L7.74413 45.8632C7.25191 47.3507 8.66292 48.7617 10.1396 48.2586L21.1213 44.5944L26.295 54.9527C26.9951 56.3527 28.9858 56.3527 29.6858 54.9527L34.8595 44.5944L45.8413 48.2586C47.3289 48.7508 48.7399 47.3398 48.2367 45.8632L44.5725 34.8814L54.9308 29.7077C56.3527 28.9967 56.3527 27.006 54.9527 26.306ZM37.9003 37.9003C32.4422 43.3584 23.5605 43.3584 18.1024 37.9003C12.6444 32.4422 12.6444 23.5605 18.1024 18.1024C23.5605 12.6444 32.4422 12.6444 37.9003 18.1024C43.3584 23.5605 43.3584 32.4422 37.9003 37.9003Z" fill="url(#paint0_linear)"/>
        <defs>
        <linearGradient id="paint0_linear" x1="27.7863" y1="86.439" x2="-6.53354" y2="19.9287" gradientUnits="userSpaceOnUse">
        <stop stop-color="#0043A7"/>
        <stop offset="1" stop-color="#6377E3"/>
        </linearGradient>
        </defs>
    </symbol>
</svg>